<svg width="48" height="48" viewBox="0 0 48 48" fill="none" xmlns="http://www.w3.org/2000/svg">
<path d="M24 4.5C13.2478 4.5 4.5 13.2478 4.5 24C4.5 34.7522 13.2478 43.5 24 43.5C34.7522 43.5 43.5 34.7522 43.5 24C43.5 13.2478 34.7522 4.5 24 4.5ZM34.1484 17.4647L21.5484 32.4647C21.4086 32.6312 21.2405 32.7612 21.0441 32.8547C20.8478 32.9481 20.6409 32.9965 20.4234 33H20.3981C20.1855 32.9999 19.9821 32.9566 19.788 32.87C19.5938 32.7835 19.4256 32.6612 19.2834 32.5031L13.8834 26.5031C13.5946 26.1968 13.4588 25.8333 13.4761 25.4126C13.4934 24.9919 13.6585 24.6408 13.9714 24.3591C14.2844 24.0775 14.651 23.9502 15.0711 23.9772C15.4913 24.0042 15.8385 24.1775 16.1128 24.4969L20.3588 29.2144L31.8516 15.5353C32.1198 15.2252 32.4582 15.0539 32.8669 15.0213C33.2756 14.9888 33.6369 15.1043 33.9509 15.368C34.2648 15.6317 34.441 15.9677 34.4795 16.3759C34.5179 16.784 34.4076 17.147 34.1484 17.4647Z" fill="#12120C"/>
</svg>
