<svg width="48" height="48" viewBox="0 0 48 48" fill="none" xmlns="http://www.w3.org/2000/svg">
<path d="M4.5 12C4.5 9.51472 6.51472 7.5 9 7.5H39C41.4853 7.5 43.5 9.51472 43.5 12V39C43.5 41.4853 41.4853 43.5 39 43.5H9C6.51472 43.5 4.5 41.4853 4.5 39V12Z" stroke="#1B1B16" stroke-width="3" stroke-linejoin="round"/>
<circle cx="27.75" cy="21.75" r="2.25" fill="#1B1B16"/>
<circle cx="35.25" cy="21.75" r="2.25" fill="#1B1B16"/>
<circle cx="27.75" cy="29.25" r="2.25" fill="#1B1B16"/>
<circle cx="35.25" cy="29.25" r="2.25" fill="#1B1B16"/>
<circle cx="12.75" cy="29.25" r="2.25" fill="#1B1B16"/>
<circle cx="20.25" cy="29.25" r="2.25" fill="#1B1B16"/>
<circle cx="12.75" cy="36.75" r="2.25" fill="#1B1B16"/>
<circle cx="20.25" cy="36.75" r="2.25" fill="#1B1B16"/>
<circle cx="27.75" cy="36.75" r="2.25" fill="#1B1B16"/>
<path d="M12 4.5V7.5M36 4.5V7.5" stroke="#1B1B16" stroke-width="3" stroke-linecap="round" stroke-linejoin="round"/>
<path d="M43.5 15H4.5" stroke="#1B1B16" stroke-width="3" stroke-linejoin="round"/>
</svg>
