<svg width="48" height="48" viewBox="0 0 48 48" fill="none" xmlns="http://www.w3.org/2000/svg">
<path d="M7.50003 23.9999C7.49957 21.0522 8.23611 18.3019 9.70964 15.749C11.1832 13.1961 13.1963 11.1826 15.7489 9.70854C18.3016 8.23451 21.0517 7.49743 23.9994 7.49732C26.9471 7.4972 29.6973 8.23406 32.25 9.7079C32.6084 9.91166 32.9866 9.95954 33.3844 9.85152C33.7823 9.7435 34.0843 9.51097 34.2904 9.15394C34.4966 8.7969 34.547 8.4191 34.4416 8.02052C34.3362 7.62195 34.1057 7.31841 33.75 7.1099C28.5003 4.07899 23.0273 3.6001 17.331 5.67325C11.6347 7.7464 7.74982 11.6311 5.67631 17.3272C3.6028 23.0234 4.08133 28.4964 7.11191 33.7463C10.1425 38.9962 14.6426 42.1477 20.6123 43.2009C26.5819 44.254 31.8888 42.8326 36.5328 38.9366C41.1768 35.0406 43.4993 30.0617 43.5 23.9999C43.5 23.5857 43.3536 23.2321 43.0607 22.9392C42.7678 22.6463 42.4142 22.4999 42 22.4999C41.5858 22.4999 41.2323 22.6463 40.9394 22.9392C40.6465 23.2321 40.5 23.5857 40.5 23.9999C40.5 28.5562 38.8891 32.4453 35.6673 35.6672C32.4455 38.889 28.5564 40.4999 24 40.4999C19.4437 40.4999 15.5546 38.889 12.3328 35.6672C9.11094 32.4453 7.50003 28.5562 7.50003 23.9999Z" fill="#FFFEF9"/>
<path d="M46.062 10.0619C46.3553 9.76868 46.5019 9.41468 46.5019 8.99994C46.5019 8.5852 46.3553 8.2312 46.062 7.93794C45.7687 7.64468 45.4147 7.49805 45 7.49805C44.5853 7.49805 44.2313 7.64468 43.938 7.93794L24 27.8789L16.062 19.9379C15.7687 19.6447 15.4147 19.498 15 19.498C14.5853 19.498 14.2313 19.6447 13.938 19.9379C13.6447 20.2312 13.4981 20.5852 13.4981 20.9999C13.4981 21.4147 13.6447 21.7687 13.938 22.0619L22.938 31.0619C23.231 31.3557 23.585 31.5026 24 31.5026C24.415 31.5026 24.769 31.3557 25.062 31.0619L46.062 10.0619Z" fill="#FFFEF9"/>
</svg>
