<svg width="17" height="16" viewBox="0 0 17 16" fill="none" xmlns="http://www.w3.org/2000/svg">
<g clip-path="url(#clip0_63_2138)">
<path d="M15.3906 5.25H1.89062C1.68352 5.25 1.50674 5.17678 1.36029 5.03033C1.21385 4.88388 1.14062 4.70711 1.14062 4.5C1.14062 4.29289 1.21385 4.11612 1.36029 3.96967C1.50674 3.82322 1.68352 3.75 1.89062 3.75H15.3906C15.5977 3.75 15.7745 3.82322 15.921 3.96967C16.0674 4.11612 16.1406 4.29289 16.1406 4.5C16.1406 4.70711 16.0674 4.88388 15.921 5.03033C15.7745 5.17678 15.5977 5.25 15.3906 5.25ZM12.8906 8.75H4.39062C4.18352 8.75 4.00674 8.67678 3.86029 8.53033C3.71385 8.38388 3.64062 8.20711 3.64062 8C3.64062 7.79289 3.71385 7.61612 3.86029 7.46967C4.00674 7.32322 4.18352 7.25 4.39062 7.25H12.8906C13.0977 7.25 13.2745 7.32322 13.421 7.46967C13.5674 7.61612 13.6406 7.79289 13.6406 8C13.6406 8.20711 13.5674 8.38388 13.421 8.53033C13.2745 8.67678 13.0977 8.75 12.8906 8.75ZM9.89062 12.25H7.39062C7.18352 12.25 7.00674 12.1768 6.86029 12.0303C6.71385 11.8839 6.64062 11.7071 6.64062 11.5C6.64062 11.2929 6.71385 11.1161 6.86029 10.9697C7.00674 10.8232 7.18352 10.75 7.39062 10.75H9.89062C10.0977 10.75 10.2745 10.8232 10.421 10.9697C10.5674 11.1161 10.6406 11.2929 10.6406 11.5C10.6406 11.7071 10.5674 11.8839 10.421 12.0303C10.2745 12.1768 10.0977 12.25 9.89062 12.25Z" fill="#4B5563"/>
</g>
<defs>
<clipPath id="clip0_63_2138">
<rect width="16" height="16" fill="white" transform="translate(0.640625)"/>
</clipPath>
</defs>
</svg>
