<svg width="16" height="16" viewBox="0 0 16 16" fill="none" xmlns="http://www.w3.org/2000/svg">
<path d="M8.00313 4.40635C6.01563 4.40635 4.4125 6.00947 4.4125 7.99697C4.4125 9.98447 6.01563 11.5876 8.00313 11.5876C9.99063 11.5876 11.5938 9.98447 11.5938 7.99697C11.5938 6.00947 9.99063 4.40635 8.00313 4.40635ZM8.00313 10.3313C6.71875 10.3313 5.66875 9.28447 5.66875 7.99697C5.66875 6.70947 6.71563 5.6626 8.00313 5.6626C9.29063 5.6626 10.3375 6.70947 10.3375 7.99697C10.3375 9.28447 9.2875 10.3313 8.00313 10.3313ZM12.5781 4.25947C12.5781 4.7251 12.2031 5.09697 11.7406 5.09697C11.275 5.09697 10.9031 4.72197 10.9031 4.25947C10.9031 3.79697 11.2781 3.42197 11.7406 3.42197C12.2031 3.42197 12.5781 3.79697 12.5781 4.25947ZM14.9563 5.10947C14.9031 3.9876 14.6469 2.99385 13.825 2.1751C13.0063 1.35635 12.0125 1.1001 10.8906 1.04385C9.73438 0.978223 6.26875 0.978223 5.1125 1.04385C3.99375 1.09697 3 1.35322 2.17813 2.17197C1.35625 2.99072 1.10313 3.98447 1.04688 5.10635C0.981252 6.2626 0.981252 9.72822 1.04688 10.8845C1.1 12.0063 1.35625 13.0001 2.17813 13.8188C3 14.6376 3.99063 14.8938 5.1125 14.9501C6.26875 15.0157 9.73438 15.0157 10.8906 14.9501C12.0125 14.897 13.0063 14.6407 13.825 13.8188C14.6438 13.0001 14.9 12.0063 14.9563 10.8845C15.0219 9.72822 15.0219 6.26572 14.9563 5.10947ZM13.4625 12.1251C13.2188 12.7376 12.7469 13.2095 12.1313 13.4563C11.2094 13.822 9.02188 13.7376 8.00313 13.7376C6.98438 13.7376 4.79375 13.8188 3.875 13.4563C3.2625 13.2126 2.79063 12.7407 2.54375 12.1251C2.17813 11.2032 2.2625 9.01572 2.2625 7.99697C2.2625 6.97822 2.18125 4.7876 2.54375 3.86885C2.7875 3.25635 3.25938 2.78447 3.875 2.5376C4.79688 2.17197 6.98438 2.25635 8.00313 2.25635C9.02188 2.25635 11.2125 2.1751 12.1313 2.5376C12.7438 2.78135 13.2156 3.25322 13.4625 3.86885C13.8281 4.79072 13.7438 6.97822 13.7438 7.99697C13.7438 9.01572 13.8281 11.2063 13.4625 12.1251Z" fill="white"/>
</svg>
