<svg width="15" height="12" viewBox="0 0 15 12" fill="none" xmlns="http://www.w3.org/2000/svg">
<g clip-path="url(#clip0_63_2531)">
<path d="M2.5375 5.44008C3.30969 5.44008 3.9375 4.93783 3.9375 4.32008C3.9375 3.70233 3.30969 3.20008 2.5375 3.20008C1.76531 3.20008 1.1375 3.70233 1.1375 4.32008C1.1375 4.93783 1.76531 5.44008 2.5375 5.44008ZM12.3375 5.44008C13.1097 5.44008 13.7375 4.93783 13.7375 4.32008C13.7375 3.70233 13.1097 3.20008 12.3375 3.20008C11.5653 3.20008 10.9375 3.70233 10.9375 4.32008C10.9375 4.93783 11.5653 5.44008 12.3375 5.44008ZM13.0375 6.00008H11.6375C11.2525 6.00008 10.9047 6.12433 10.6509 6.32558C11.5325 6.71233 12.1581 7.41058 12.2937 8.24008H13.7375C14.1247 8.24008 14.4375 7.98983 14.4375 7.68008V7.12008C14.4375 6.50233 13.8097 6.00008 13.0375 6.00008ZM7.4375 6.00008C8.79156 6.00008 9.8875 5.12333 9.8875 4.04008C9.8875 2.95683 8.79156 2.08008 7.4375 2.08008C6.08344 2.08008 4.9875 2.95683 4.9875 4.04008C4.9875 5.12333 6.08344 6.00008 7.4375 6.00008ZM9.1175 6.56008H8.93594C8.48094 6.73508 7.97563 6.84008 7.4375 6.84008C6.89937 6.84008 6.39625 6.73508 5.93906 6.56008H5.7575C4.36625 6.56008 3.2375 7.46308 3.2375 8.57608V9.08008C3.2375 9.54383 3.70781 9.92008 4.2875 9.92008H10.5875C11.1672 9.92008 11.6375 9.54383 11.6375 9.08008V8.57608C11.6375 7.46308 10.5087 6.56008 9.1175 6.56008ZM4.22406 6.32558C3.97031 6.12433 3.6225 6.00008 3.2375 6.00008H1.8375C1.06531 6.00008 0.4375 6.50233 0.4375 7.12008V7.68008C0.4375 7.98983 0.750312 8.24008 1.1375 8.24008H2.57906C2.71688 7.41058 3.3425 6.71233 4.22406 6.32558Z" fill="#4B5563"/>
</g>
<defs>
<clipPath id="clip0_63_2531">
<rect width="14" height="11.2" fill="white" transform="translate(0.4375 0.399902)"/>
</clipPath>
</defs>
</svg>
