<svg width="16" height="20" viewBox="0 0 16 20" fill="none" xmlns="http://www.w3.org/2000/svg">
<g clip-path="url(#clip0_63_2592)">
<path d="M7.38338 19.6772C2.84281 13.0947 2 12.4192 2 10C2 6.68628 4.68628 4 8 4C11.3137 4 14 6.68628 14 10C14 12.4192 13.1572 13.0947 8.61662 19.6772C8.31866 20.1076 7.68131 20.1076 7.38338 19.6772ZM8 12.5C9.38072 12.5 10.5 11.3807 10.5 10C10.5 8.61928 9.38072 7.5 8 7.5C6.61928 7.5 5.5 8.61928 5.5 10C5.5 11.3807 6.61928 12.5 8 12.5Z" fill="#EAB308"/>
</g>
<defs>
<clipPath id="clip0_63_2592">
<rect width="16" height="16" fill="white" transform="translate(0 4)"/>
</clipPath>
</defs>
</svg>
