<svg width="16" height="16" viewBox="0 0 16 16" fill="none" xmlns="http://www.w3.org/2000/svg">
<g clip-path="url(#clip0_143_663)">
<path d="M14.6668 11.28V13.28C14.6684 13.6729 14.5244 14.0023 14.2348 14.2679C13.9453 14.5336 13.6048 14.6487 13.2135 14.6133C12.1877 14.5019 11.1888 14.2732 10.2167 13.9274C9.24466 13.5816 8.32579 13.128 7.46012 12.5667C6.65473 12.0549 5.91466 11.4616 5.23991 10.7869C4.56516 10.1121 3.9719 9.37205 3.46012 8.56666C2.89678 7.69706 2.44219 6.77391 2.09634 5.79721C1.7505 4.82051 1.52287 3.81699 1.41345 2.78666C1.37821 2.39662 1.4926 2.05698 1.75663 1.76774C2.02066 1.4785 2.34849 1.33369 2.74012 1.33333H4.74012C5.07474 1.33003 5.36891 1.43748 5.62263 1.65568C5.87635 1.87388 6.02662 2.14865 6.07345 2.47999C6.11566 2.80001 6.17578 3.11664 6.25381 3.42986C6.33183 3.74308 6.42727 4.0509 6.54012 4.35333C6.6317 4.59695 6.65034 4.84603 6.59606 5.10058C6.54177 5.35512 6.42313 5.57493 6.24012 5.75999L5.39345 6.60666C5.86797 7.44117 6.44464 8.19784 7.12346 8.87666C7.80227 9.55547 8.55894 10.1321 9.39345 10.6067L10.2401 9.75999C10.4252 9.57699 10.645 9.45834 10.8995 9.40405C11.1541 9.34977 11.4032 9.36841 11.6468 9.45999C11.9492 9.57284 12.257 9.66828 12.5703 9.74631C12.8835 9.82433 13.2001 9.88445 13.5201 9.92666C13.8553 9.97395 14.1323 10.1267 14.3511 10.385C14.57 10.6433 14.6752 10.9416 14.6668 11.28Z" stroke="#9CA3AF" stroke-width="1.33333" stroke-linejoin="round"/>
</g>
<defs>
<clipPath id="clip0_143_663">
<rect width="16" height="16" fill="white"/>
</clipPath>
</defs>
</svg>
