<svg width="49" height="48" viewBox="0 0 49 48" fill="none" xmlns="http://www.w3.org/2000/svg">
<path d="M31.2359 21.7406L26.7828 28.8188C26.6917 28.945 26.5911 29.0632 26.4811 29.1733C26.371 29.2833 26.2528 29.3839 26.1266 29.475C25.4923 29.9175 24.7941 30.073 24.0319 29.9417C23.2698 29.8103 22.664 29.4299 22.2145 28.8006C21.765 28.1713 21.6017 27.4749 21.7246 26.7113C21.8474 25.9478 22.221 25.3378 22.8453 24.8813L29.9234 20.4281C30.0882 20.3133 30.271 20.2559 30.4719 20.2559C30.6727 20.2559 30.8555 20.3133 31.0203 20.4281C31.2306 20.58 31.3568 20.7839 31.3989 21.0399C31.4409 21.2959 31.3866 21.5295 31.2359 21.7406Z" fill="#F9F9F9"/>
<path d="M24.6641 6C13.0672 6 3.66406 15.3937 3.66406 26.9906C3.6605 29.556 4.11345 32.0381 5.02289 34.4369C5.93233 36.8357 7.23877 38.9943 8.94219 40.9125C9.04531 41.025 9.13906 41.1375 9.24218 41.2406C9.7114 41.7486 10.2918 42.0017 10.9833 41.9998C11.6748 41.9979 12.2538 41.7418 12.7203 41.2312C15.9351 37.7376 19.9164 35.9908 24.6641 35.9908C29.4117 35.9908 33.393 37.7376 36.6078 41.2312C37.0743 41.7418 37.6533 41.9979 38.3448 41.9998C39.0363 42.0017 39.6167 41.7486 40.0859 41.2406L40.3859 40.9125C42.0894 38.9943 43.3958 36.8357 44.3052 34.4369C45.2147 32.0381 45.6676 29.556 45.6641 26.9906C45.6641 15.3937 36.2609 6 24.6641 6Z" stroke="#F9F9F9" stroke-width="3" stroke-linejoin="round"/>
<path d="M24.6641 12V15M39.6641 27H36.6641M12.6641 27H9.66406M16.1787 18.5147L14.0572 16.3931M33.1494 18.5147L35.2709 16.3931" stroke="#F9F9F9" stroke-width="3" stroke-linecap="round"/>
</svg>
