<svg width="25" height="24" viewBox="0 0 25 24" fill="none" xmlns="http://www.w3.org/2000/svg">
<path d="M17.1562 9.39996L8.15625 4.20996" stroke="#040404" stroke-width="2" stroke-linecap="round" stroke-linejoin="round"/>
<path d="M21.6562 15.9999V7.9999C21.6559 7.643 21.5664 7.31006 21.3878 7.00106C21.2092 6.69207 20.9653 6.44835 20.6562 6.2699L13.6562 2.2699C13.3468 2.09127 13.0135 2.00195 12.6562 2.00195C12.299 2.00195 11.9657 2.09127 11.6562 2.2699L4.65625 6.2699C4.34717 6.44835 4.10332 6.69207 3.92471 7.00107C3.7461 7.31006 3.65662 7.643 3.65625 7.9999V15.9999C3.65662 16.3568 3.7461 16.6897 3.92471 16.9987C4.10332 17.3077 4.34717 17.5515 4.65625 17.7299L11.6562 21.7299C11.9657 21.9085 12.299 21.9979 12.6562 21.9979C13.0135 21.9979 13.3468 21.9085 13.6562 21.7299L20.6562 17.7299C20.9653 17.5515 21.2092 17.3077 21.3878 16.9987C21.5664 16.6897 21.6559 16.3568 21.6562 15.9999Z" stroke="#040404" stroke-width="2" stroke-linejoin="round"/>
<path d="M3.92627 6.95996L12.6563 12.01L21.3863 6.95996" stroke="#040404" stroke-width="2" stroke-linecap="round" stroke-linejoin="round"/>
<path d="M12.6562 22.08V12" stroke="#040404" stroke-width="2" stroke-linecap="round" stroke-linejoin="round"/>
</svg>
