<svg width="15" height="14" viewBox="0 0 15 14" fill="none" xmlns="http://www.w3.org/2000/svg">
<path d="M13.6695 8.16733C13.1819 10.5682 11.2197 12.4335 8.76937 12.7767L8.76949 11.5956C10.574 11.2771 12.0208 9.92176 12.4725 8.16698L13.6695 8.16733ZM3.43337 8.16698C3.8802 9.90269 5.30054 11.2476 7.07764 11.5848V12.7682C4.65489 12.4036 2.72013 10.549 2.23643 8.16733L3.43337 8.16698ZM11.4529 6.41675V7.58341H10.8696C9.61999 7.58341 8.59985 8.56575 8.53913 9.80031L8.53627 9.91675V10.5001H7.3696V9.91675C7.3696 8.66713 6.38731 7.64694 5.15275 7.58627L5.03629 7.58341H4.45296V6.41675H11.4529ZM7.95294 1.16675C10.9778 1.16675 13.4648 3.46894 13.7575 6.41669L12.5836 6.41675C12.2965 4.11475 10.3328 2.33341 7.95294 2.33341C5.57318 2.33341 3.60944 4.11475 3.3224 6.41675L2.14844 6.41669C2.44114 3.46894 4.9282 1.16675 7.95294 1.16675Z" fill="#4B5563"/>
</svg>
